Coordinates
version=1
nRows=38
nColumns=12
inDegrees=yes

Units are S.I. units (second, meters, Newtons, ...)
Angles are in degrees

endheader
time	SC_y	SC_z	SC_x	AC_y	AC_z	AC_x	GH_y	GH_z	GH_yy	EL_x	PS_y
       0.0              -45.06          6.852          73.96          60.67         -10.36         -5.204         -26.99           85.7          34.34          103.9          94.85
   0.02914              -45.06          6.854          73.96          60.67         -10.36         -5.201         -26.98           85.7          34.34          103.9          94.84
   0.05827              -45.05          6.856          73.96          60.67         -10.36         -5.199         -26.96           85.7          34.34          103.9          94.83
   0.08741              -45.05          6.859          73.95          60.66         -10.36         -5.196         -26.94           85.7          34.33          103.9          94.82
    0.1165              -45.04          6.861          73.95          60.66         -10.35         -5.193         -26.92           85.7          34.33          103.9          94.81
    0.1457              -45.04          6.863          73.95          60.65         -10.35         -5.191          -26.9           85.7          34.32          103.9           94.8
    0.1748              -45.03          6.866          73.94          60.65         -10.35         -5.187         -26.88           85.7          34.31          103.9          94.79
     0.204              -45.03          6.869          73.94          60.64         -10.35         -5.184         -26.85          85.69          34.31          103.9          94.78
    0.2331              -45.02          6.872          73.93          60.64         -10.34          -5.18         -26.83          85.69           34.3          103.9          94.77
    0.2622              -45.01          6.875          73.93          60.63         -10.34         -5.176          -26.8          85.69           34.3          103.9          94.75
    0.2914              -45.01          6.879          73.92          60.62         -10.34         -5.172         -26.77          85.69          34.29          103.9          94.74
    0.3205               -45.0          6.882          73.91          60.62         -10.33         -5.168         -26.74          85.69          34.28          103.9          94.72
    0.3496              -44.99          6.887          73.91          60.61         -10.33         -5.163         -26.71          85.69          34.27          103.9           94.7
    0.3788              -44.98          6.891           73.9           60.6         -10.33         -5.158         -26.67          85.68          34.26          103.9          94.69
    0.4079              -44.97          6.896          73.89          60.59         -10.32         -5.152         -26.63          85.68          34.25          103.9          94.66
    0.4371              -44.96          6.901          73.88          60.58         -10.32         -5.146         -26.59          85.68          34.24          103.9          94.64
    0.4662              -44.95          6.906          73.88          60.57         -10.31         -5.139         -26.54          85.68          34.23          103.9          94.62
    0.4953              -44.94          6.912          73.86          60.56         -10.31         -5.132         -26.49          85.67          34.21          103.9          94.59
    0.5245              -44.92          6.919          73.85          60.55          -10.3         -5.124         -26.44          85.67           34.2          103.9          94.56
    0.5536              -44.91          6.926          73.84          60.53         -10.29         -5.115         -26.37          85.67          34.18          103.9          94.53
    0.5827              -44.89          6.934          73.83          60.52         -10.29         -5.105         -26.31          85.66          34.17          103.9           94.5
    0.6119              -44.87          6.943          73.81           60.5         -10.28         -5.095         -26.23          85.66          34.15          103.9          94.46
     0.641              -44.85          6.953           73.8          60.48         -10.27         -5.083         -26.15          85.65          34.13          103.9          94.42
    0.6702              -44.83          6.964          73.78          60.46         -10.26          -5.07         -26.06          85.65           34.1          103.9          94.37
    0.6993              -44.81          6.976          73.76          60.44         -10.25         -5.056         -25.96          85.64          34.08          103.9          94.32
    0.7284              -44.78          6.989          73.74          60.41         -10.24          -5.04         -25.85          85.64          34.05          103.9          94.26
    0.7576              -44.75          7.004          73.71          60.38         -10.22         -5.022         -25.73          85.63          34.02          103.9           94.2
    0.7867              -44.71          7.021          73.69          60.35         -10.21         -5.002         -25.59          85.62          33.98          103.9          94.13
    0.8158              -44.68           7.04          73.65          60.31         -10.19         -4.979         -25.43          85.61          33.94          103.9          94.04
     0.845              -44.63          7.061          73.62          60.27         -10.17         -4.953         -25.25           85.6          33.89          103.9          93.95
    0.8741              -44.58          7.086          73.58          60.22         -10.15         -4.924         -25.04          85.59          33.84          103.9          93.85
    0.9033              -44.52          7.114          73.53          60.17         -10.12          -4.89         -24.81          85.58          33.78          103.9          93.72
    0.9324              -44.46          7.147          73.48          60.11         -10.09         -4.851         -24.53          85.56          33.71          103.9          93.58
    0.9615              -44.38          7.185          73.41          60.03         -10.06         -4.805         -24.22          85.55          33.62          103.9          93.42
    0.9907              -44.29          7.229          73.34          59.95         -10.02         -4.752         -23.85          85.53          33.53          103.9          93.23
      1.02              -44.18          7.282          73.25          59.85          -9.97         -4.689         -23.41           85.5          33.42          103.9           93.0
     1.049              -44.05          7.344          73.15          59.73         -9.913         -4.615         -22.89          85.47          33.28          103.9          92.74
     1.078               -43.9          7.418          73.03          59.58         -9.846         -4.525         -22.27          85.44          33.12          103.9          92.42
